<svg width="111" height="111" viewBox="0 0 111 111" fill="none" xmlns="http://www.w3.org/2000/svg">
<g clip-path="url(#clip0_56_828)">
<path d="M109.15 84.4432C105.108 78.8146 96.0473 69.375 80.7987 69.375C66.6786 69.375 57.8448 77.2097 52.9192 83.7865C50.1026 87.5466 50.2043 92.6711 53.1736 96.237C57.7662 101.745 67.4648 110.995 80.7987 110.995C96.0242 110.995 105.094 101.551 109.15 95.9225C111.615 92.4907 111.615 87.8796 109.15 84.4432ZM105.394 93.2261C101.079 99.2247 93.3093 106.375 80.8033 106.375C69.3518 106.375 60.8048 98.1702 56.7302 93.2816C55.1346 91.3669 55.093 88.6011 56.6285 86.5615C60.9205 80.8311 68.6026 74 80.8033 74C93.3278 74 101.093 81.1456 105.394 87.1442C106.703 88.9665 106.703 91.4131 105.394 93.2261ZM80.9375 80.9375C75.8361 80.9375 71.6875 85.0861 71.6875 90.1875C71.6875 95.2889 75.8361 99.4375 80.9375 99.4375C86.0388 99.4375 90.1875 95.2889 90.1875 90.1875C90.1875 85.0861 86.0388 80.9375 80.9375 80.9375ZM80.9375 94.8125C78.3845 94.8125 76.3125 92.7405 76.3125 90.1875C76.3125 87.6345 78.3845 85.5625 80.9375 85.5625C83.4904 85.5625 85.5625 87.6345 85.5625 90.1875C85.5625 92.7405 83.4904 94.8125 80.9375 94.8125ZM9.24995 67.0625V108.688C9.24995 109.964 8.21395 111 6.93745 111C5.66095 111 4.62495 109.964 4.62495 108.688V67.0625C4.62495 65.786 5.66095 64.75 6.93745 64.75C8.21395 64.75 9.24995 65.786 9.24995 67.0625ZM27.7499 48.5625V108.688C27.7499 109.964 26.7139 111 25.4374 111C24.1609 111 23.1249 109.964 23.1249 108.688V48.5625C23.1249 47.286 24.1609 46.25 25.4374 46.25C26.7139 46.25 27.7499 47.286 27.7499 48.5625ZM46.25 30.0625V108.688C46.25 109.964 45.214 111 43.9375 111C42.6609 111 41.625 109.964 41.625 108.688V30.0625C41.625 28.786 42.6609 27.75 43.9375 27.75C45.214 27.75 46.25 28.786 46.25 30.0625ZM62.4375 46.25C63.714 46.25 64.75 47.286 64.75 48.5625V60.125C64.75 61.4015 63.714 62.4375 62.4375 62.4375C61.1609 62.4375 60.125 61.4015 60.125 60.125V48.5625C60.125 47.286 61.1609 46.25 62.4375 46.25ZM80.9375 46.25C82.214 46.25 83.25 47.286 83.25 48.5625V57.8125C83.25 59.089 82.214 60.125 80.9375 60.125C79.6609 60.125 78.625 59.089 78.625 57.8125V48.5625C78.625 47.286 79.6609 46.25 80.9375 46.25ZM99.4375 41.625C100.714 41.625 101.75 42.661 101.75 43.9375V62.4375C101.75 63.714 100.714 64.75 99.4375 64.75C98.1609 64.75 97.125 63.714 97.125 62.4375V43.9375C97.125 42.661 98.1609 41.625 99.4375 41.625ZM62.493 33.3879L49.8667 20.7616C46.5968 17.4917 41.2873 17.4917 38.0175 20.7616L3.9497 54.8247C3.04782 55.7266 1.5817 55.7266 0.679824 54.8247C-0.222051 53.9229 -0.222051 52.4568 0.679824 51.5549L34.743 17.4871C39.812 12.4181 48.0676 12.4181 53.1366 17.4871L65.7628 30.1134C68.9356 33.2861 74.444 33.2861 77.6121 30.1134L103.105 4.625H80.9375C79.6609 4.625 78.625 3.589 78.625 2.3125C78.625 1.036 79.6609 0 80.9375 0H104.062C107.887 0 111 3.11262 111 6.9375V30.0625C111 31.339 109.964 32.375 108.687 32.375C107.411 32.375 106.375 31.339 106.375 30.0625V7.89488L80.882 33.3879C75.813 38.4569 67.5573 38.4569 62.4883 33.3879H62.493Z" fill="#F7982B"/>
</g>
<defs>
<clipPath id="clip0_56_828">
<rect width="111" height="111" fill="white"/>
</clipPath>
</defs>
</svg>
